<?xml version="1.0" encoding="UTF-8"?>
<svg version="1.1" xmlns="http://www.w3.org/2000/svg" width="456" height="314">
<path d="M0 0 C3.07680963 0.4030412 6.15533879 0.79065505 9.23413086 1.17822266 C11.20626022 1.43639064 13.17827019 1.69547258 15.15014648 1.95556641 C16.51900246 2.12449905 16.51900246 2.12449905 17.91551208 2.29684448 C25.36915542 3.3097709 30.91130304 5.30811755 35.72583008 11.28271484 C38.57665856 15.8603821 39.92384321 21.0113203 41.43530273 26.15087891 C41.78141602 27.26978516 42.1275293 28.38869141 42.48413086 29.54150391 C43.9056546 34.18570231 45.19508427 38.75774666 46.12280273 43.52587891 C47.068861 43.52262635 48.01491926 43.5193738 48.98964596 43.51602268 C72.89397754 43.44177055 96.78145949 43.6519668 120.68139195 44.09873462 C125.17219136 44.18200265 129.66305797 44.26150253 134.15391541 44.34156799 C141.68077874 44.47629004 149.20759132 44.61358791 156.734375 44.75268555 C165.32082942 44.91134799 173.9073419 45.06646968 182.4938975 45.21955246 C191.80641067 45.38561456 201.11887544 45.55428225 210.43132854 45.72367597 C213.04066485 45.77097932 215.65000895 45.81782853 218.25935555 45.86456108 C227.14742131 46.02432514 236.03517822 46.19340928 244.92269439 46.38143569 C249.93694194 46.48605266 254.95120618 46.57185324 259.96596509 46.64788216 C263.40351889 46.70277958 266.84077155 46.76972663 270.27805603 46.83932316 C271.90837036 46.86978277 273.53878711 46.89522921 275.16926205 46.91533172 C277.41759587 46.9437474 279.66489659 46.99012271 281.91282654 47.04066467 C283.18834098 47.06205033 284.46385542 47.08343599 285.77802181 47.1054697 C290.06969232 47.6448945 292.51069075 49.33691471 295.91271973 51.84597778 C299.20056463 56.41033768 297.4415698 64.48660199 296.62255859 69.72613525 C295.93636549 72.99688297 295.15958265 76.23094112 294.34155273 79.47119141 C294.05227402 80.66888657 293.7629953 81.86658173 293.46495056 83.10057068 C292.69050528 86.29701954 291.90358286 89.49004288 291.11036301 92.68187332 C290.29073523 95.99192906 289.48637377 99.30568194 288.68164062 102.61938477 C288.35909826 103.9471315 288.03654275 105.27487503 287.713974 106.60261536 C287.47561986 107.58391891 287.47561986 107.58391891 287.23245049 108.58504677 C286.75326282 110.55464843 286.27200132 112.52373367 285.79029846 114.49272156 C283.97715476 121.92375409 282.22639012 129.36305524 280.58764648 136.83447266 C280.31732101 138.06006897 280.31732101 138.06006897 280.04153442 139.3104248 C279.39146106 142.26578209 278.74251878 145.22105785 278.12036133 148.18243408 C275.80938118 159.17591593 273.17183012 168.50891911 264.47827148 176.05322266 C257.76566343 180.24999419 250.9472592 181.14074455 243.22363281 181.796875 C242.15667679 181.89657089 241.08972076 181.99626678 239.99043274 182.09898376 C236.45861532 182.42634911 232.92558347 182.73782025 229.39233398 183.04931641 C226.88505557 183.27867491 224.37787015 183.5090521 221.87077332 183.74038696 C215.9106375 184.28795586 209.94969239 184.82565802 203.98822278 185.35843527 C196.76987385 186.00401811 189.55278906 186.66332312 182.33569336 187.32275391 C179.74811954 187.55846736 177.16054427 187.7941648 174.57296753 188.02984619 C169.41279483 188.50026725 164.25294759 188.97407427 159.09329224 189.45013428 C147.59892616 190.50699489 136.10544306 191.54253544 124.5979166 192.44674492 C119.70430892 192.83422228 114.81267945 193.24382368 109.92111778 193.65623856 C107.63645616 193.84280938 105.35089407 194.01871485 103.0645237 194.18302536 C86.30206989 195.21630193 86.30206989 195.21630193 72.12280273 203.52587891 C71.06963867 204.24775391 70.01647461 204.96962891 68.93139648 205.71337891 C63.50580862 209.70643544 63.50580862 209.70643544 60.49780273 215.52587891 C60.37405273 216.51587891 60.25030273 217.50587891 60.12280273 218.52587891 C60.90655273 218.71150391 61.69030273 218.89712891 62.49780273 219.08837891 C68.29808161 221.3884895 74.3358159 224.84202941 77.84459114 230.11180782 C79.94098486 232.80276534 79.94098486 232.80276534 83.22195244 233.1299448 C84.44936213 233.12014056 85.67677181 233.11033632 86.94137573 233.10023499 C87.96920738 233.10240978 87.96920738 233.10240978 89.01780331 233.1046285 C91.31381659 233.10349764 93.6078633 233.06663932 95.90356445 233.0300293 C97.54956153 233.02207028 99.19557087 233.01637356 100.84158325 233.01277161 C104.38640192 233.00035212 107.93063302 232.97229561 111.47524643 232.93226814 C117.08080938 232.8694577 122.68616716 232.84366705 128.29202271 232.823349 C139.18194481 232.77888706 150.071443 232.69798887 160.96110535 232.61211395 C174.81511576 232.50383001 188.66908212 232.4077032 202.52341664 232.3528766 C208.09508226 232.32952897 213.66611271 232.28593453 219.23750663 232.22661412 C222.70561076 232.19356483 226.1736534 232.17705425 229.64188766 232.16491508 C231.24875891 232.15583736 232.85560842 232.1398336 234.46233368 232.11634827 C236.658662 232.08516777 238.85374377 232.0788579 241.05026245 232.07850647 C242.27842619 232.0683252 243.50658993 232.05814394 244.77197075 232.04765415 C249.35009809 232.70103631 252.68448941 234.62992043 255.49780273 238.33837891 C256.43987668 241.63563773 256.5354093 244.1071388 256.12280273 247.52587891 C254.33804033 250.49827131 252.27072219 252.95191918 249.12280273 254.52587891 C246.24369686 254.758621 243.38133778 254.94560647 240.49780273 255.08837891 C239.69600586 255.1315625 238.89420898 255.17474609 238.06811523 255.21923828 C236.08655163 255.32539347 234.10470003 255.42614746 232.12280273 255.52587891 C232.12280273 256.18587891 232.12280273 256.84587891 232.12280273 257.52587891 C233.00967773 258.06212891 233.89655273 258.59837891 234.81030273 259.15087891 C239.93815521 262.42397623 242.75746241 267.66935812 244.49780273 273.40087891 C245.90653272 280.30907401 244.9891213 287.40186893 241.55249023 293.57275391 C237.27562189 299.41547022 232.17611396 303.71597263 225.12280273 305.52587891 C215.95721927 306.51488791 208.59357966 305.62624252 201.15795898 300.05322266 C195.68268806 295.15673301 192.83563561 289.25115252 191.74389648 282.01416016 C191.38876841 274.71685095 193.13040873 267.83170548 198.09936523 262.34228516 C203.42939227 257.52587891 203.42939227 257.52587891 206.12280273 257.52587891 C206.12280273 256.53587891 206.12280273 255.54587891 206.12280273 254.52587891 C167.84280273 254.52587891 129.56280273 254.52587891 90.12280273 254.52587891 C90.12280273 259.80587891 90.12280273 265.08587891 90.12280273 270.52587891 C86.54680792 283.5920138 79.017732 294.50877503 67.23608398 301.46337891 C55.57826995 307.32460888 41.84113036 308.44168693 29.31030273 304.96337891 C23.10709426 302.80177006 18.16248112 299.70033817 13.12280273 295.52587891 C12.48729492 295.02572266 11.85178711 294.52556641 11.19702148 294.01025391 C4.77436088 288.3708446 -0.12137908 278.90078149 -1.87719727 270.52587891 C-2.81562305 255.14184965 -1.23912095 242.66939817 9.12280273 230.52587891 C15.40420069 223.88254166 22.61135717 218.6547292 31.68920898 216.79541016 C36.19600395 215.12907527 36.86640773 213.35226409 38.93530273 209.08837891 C44.78522974 197.88095273 52.73677308 189.3177308 64.12280273 183.52587891 C64.78280273 183.52587891 65.44280273 183.52587891 66.12280273 183.52587891 C65.78958008 182.48133545 65.45635742 181.43679199 65.11303711 180.3605957 C63.87870841 176.4874576 62.65004678 172.61254145 61.4230957 168.73706055 C60.89111445 167.05948573 60.35759437 165.38239809 59.82250977 163.70581055 C59.05397636 161.29683616 58.29098097 158.88616808 57.52905273 156.47509766 C57.28844116 155.72499924 57.04782959 154.97490082 56.79992676 154.20207214 C55.85627291 151.20050809 55.12280273 148.69253401 55.12280273 145.52587891 C50.17280273 145.52587891 45.22280273 145.52587891 40.12280273 145.52587891 C41.32678711 147.57291016 42.53077148 149.61994141 43.77124023 151.72900391 C44.93984572 153.71791639 46.10800562 155.70708991 47.27612305 157.69628906 C48.08652984 159.07579446 48.89739765 160.45502914 49.70874023 161.83398438 C50.87662898 163.819109 52.04284194 165.80520976 53.20874023 167.79150391 C53.75103775 168.71204559 53.75103775 168.71204559 54.30429077 169.65118408 C56.01357734 172.56680265 57.63100319 175.49410269 59.12280273 178.52587891 C50.96098094 178.71226915 42.92342845 178.12358526 34.79467773 177.43212891 C33.43332372 177.31960163 32.07193376 177.20750854 30.71051025 177.0958252 C27.1550647 176.8033231 23.60000425 176.50640473 20.04504395 176.20806885 C14.34305342 175.72983222 8.64067789 175.25633364 2.93796539 174.78678894 C0.95811287 174.62281221 -1.02146605 174.45554262 -3.0010376 174.28820801 C-4.81387238 174.13805237 -4.81387238 174.13805237 -6.66333008 173.98486328 C-7.7212677 173.89603882 -8.77920532 173.80721436 -9.86920166 173.71569824 C-12.88064148 173.52566156 -15.86064262 173.49274467 -18.87719727 173.52587891 C-10.01636586 185.63508027 -1.03764847 197.64163905 8.12280273 209.52587891 C5.26003478 210.37872393 3.09051781 210.57895809 0.13623047 210.18041992 C-0.63459366 210.08024063 -1.40541779 209.98006134 -2.19960022 209.87684631 C-3.02262131 209.76231613 -3.8456424 209.64778595 -4.69360352 209.52978516 C-5.54647446 209.41738998 -6.3993454 209.30499481 -7.27806091 209.18919373 C-9.99959633 208.8292792 -12.71963414 208.45924198 -15.43969727 208.08837891 C-18.16355092 207.72300441 -20.88766885 207.35973101 -23.61204529 206.99827576 C-25.30630638 206.77284495 -27.00022109 206.54479207 -28.69374084 206.31385803 C-31.77867539 205.89861457 -34.76041956 205.52587891 -37.87719727 205.52587891 C-37.16756836 206.30898438 -37.16756836 206.30898438 -36.44360352 207.10791016 C-21.45570966 223.79034172 -21.45570966 223.79034172 -19.87719727 228.52587891 C-26.30478045 226.67259932 -32.58845755 224.61016844 -38.83422852 222.21728516 C-39.67484833 221.89856445 -40.51546814 221.57984375 -41.38156128 221.25146484 C-44.15214757 220.20025189 -46.92089984 219.14429354 -49.68969727 218.08837891 C-51.66001246 217.33987203 -53.63047489 216.59175265 -55.60107422 215.84399414 C-58.72752403 214.65756114 -61.85386069 213.47083739 -64.97972107 212.28285217 C-72.88614077 209.27837775 -80.79819625 206.28908361 -88.71313477 203.30712891 C-89.86917709 202.87150131 -91.02521942 202.43587372 -92.21629333 201.98704529 C-96.75427246 200.27715547 -101.2923199 198.56744793 -105.83071899 196.8586731 C-121.87317823 190.81718934 -137.88488629 184.69889545 -153.87719727 178.52587891 C-153.87719727 177.86587891 -153.87719727 177.20587891 -153.87719727 176.52587891 C-146.16391601 176.39256889 -138.45059218 176.26206394 -130.73721027 176.13472748 C-127.15193233 176.0754605 -123.56667272 176.01537943 -119.98144531 175.953125 C-100.61086762 175.61752713 -81.25111786 175.45382547 -61.87719727 175.52587891 C-62.24654388 174.91030121 -62.6158905 174.29472351 -62.99642944 173.66049194 C-70.66625977 160.87744141 -70.66625977 160.87744141 -72.25708008 158.21826172 C-73.3671138 156.3735583 -74.48675846 154.53461385 -75.61450195 152.70068359 C-76.4367627 151.35731934 -76.4367627 151.35731934 -77.27563477 149.98681641 C-77.77498535 149.17776855 -78.27433594 148.3687207 -78.78881836 147.53515625 C-79.87719727 145.52587891 -79.87719727 145.52587891 -79.87719727 143.52587891 C-51.53880441 142.82496878 -23.22461042 142.36184598 5.12280273 142.52587891 C3.18895968 139.27368975 1.2500928 136.02452385 -0.68969727 132.77587891 C-1.2369043 131.85548828 -1.78411133 130.93509766 -2.34790039 129.98681641 C-2.87963867 129.09736328 -3.41137695 128.20791016 -3.95922852 127.29150391 C-4.44625244 126.47456055 -4.93327637 125.65761719 -5.43505859 124.81591797 C-6.84512272 122.49496257 -6.84512272 122.49496257 -8.55957031 120.35302734 C-9.87719727 118.52587891 -9.87719727 118.52587891 -9.87719727 116.52587891 C8.27280273 116.52587891 26.42280273 116.52587891 45.12280273 116.52587891 C43.76026367 112.17271484 42.39772461 107.81955078 40.99389648 103.33447266 C40.11424153 100.52265417 39.23464021 97.71081911 38.35522461 94.89892578 C36.96925671 90.46737054 35.58312502 86.03586717 34.19580078 81.60473633 C29.75891236 67.43237907 25.32359475 53.2593884 20.97045898 39.06103516 C20.67674911 38.10950058 20.38303925 37.157966 20.08042908 36.17759705 C19.81863358 35.31936844 19.55683807 34.46113983 19.28710938 33.5769043 C19.06027969 32.83662491 18.83345001 32.09634552 18.5997467 31.33363342 C18.12280273 29.52587891 18.12280273 29.52587891 18.12280273 27.52587891 C17.56427612 27.45515167 17.00574951 27.38442444 16.43029785 27.31155396 C10.5890953 26.57090775 4.74878505 25.82350415 -1.09106445 25.07226562 C-3.26727739 24.79320593 -5.44370811 24.51583891 -7.62036133 24.24023438 C-10.7586526 23.84256435 -13.8960964 23.43870569 -17.03344727 23.03369141 C-17.99835083 22.9127713 -18.96325439 22.7918512 -19.95739746 22.66726685 C-35.87207975 20.59268802 -35.87207975 20.59268802 -40.87719727 14.52587891 C-42.50944954 11.26137435 -42.55983661 8.04020738 -41.87719727 4.52587891 C-33.69108051 -9.04856786 -13.25687666 -1.7487931 0 0 Z M52.12280273 63.52587891 C59.32210529 87.69992255 66.64786047 111.8332055 74.06752014 135.94044876 C74.74755971 138.15008926 75.42732529 140.35981392 76.10705566 142.56954956 C77.19097487 146.09276326 78.2758217 149.61569003 79.36145401 153.13837624 C79.7654707 154.4495213 80.16929154 155.76072673 80.57290268 157.07199669 C81.13131959 158.88577761 81.69076068 160.6992431 82.25024414 162.51269531 C82.7222374 164.04381454 82.7222374 164.04381454 83.20376587 165.60586548 C84.14329953 168.59100243 85.12480585 171.5598279 86.12280273 174.52587891 C103.45470588 173.92398671 120.69660601 172.4522048 137.96327782 170.89820147 C140.30296499 170.68779095 142.64274674 170.47846343 144.9825592 170.26945114 C152.32928388 169.61293999 159.67569659 168.95309533 167.02164984 168.28800642 C175.45988322 167.52402487 183.899026 166.77133483 192.33911562 166.02814639 C198.90513258 165.44932084 205.47023681 164.86081708 212.03472471 164.26490247 C215.94031256 163.91056335 219.84616007 163.56026386 223.75300598 163.22005081 C227.41174408 162.90116776 231.06919874 162.57027904 234.72601891 162.23012733 C236.70292761 162.04930057 238.68096709 161.8809723 240.65901184 161.71302795 C241.83876083 161.60096512 243.01850983 161.48890228 244.23400879 161.3734436 C245.76797932 161.23574019 245.76797932 161.23574019 247.33293915 161.0952549 C250.48797847 160.45135114 252.52660535 159.4149621 255.12280273 157.52587891 C256.33077617 155.02419901 256.33077617 155.02419901 256.90405273 152.01806641 C257.32170898 150.23613892 257.32170898 150.23613892 257.74780273 148.41821289 C258.03979559 147.07917265 258.33145014 145.7400586 258.62280273 144.40087891 C258.9439068 142.99689866 259.26689047 141.59334725 259.59155273 140.19018555 C260.34043771 136.93471137 261.07533894 133.67641181 261.80249023 130.41601562 C263.20385513 124.14287087 264.64104269 117.87807281 266.079422 111.61332703 C269.45192054 96.92309555 272.79238831 82.22570931 276.12280273 67.52587891 C255.49346111 66.8235197 234.87203906 66.31435437 214.23217773 66.02587891 C211.46217025 65.985419 208.69217547 65.9441176 205.92218018 65.90283203 C199.42154973 65.8063805 192.92088563 65.71246159 186.42020249 65.61963654 C174.97868016 65.45614904 163.53723168 65.28755789 152.09577799 65.11934566 C148.57025814 65.06751697 145.04473662 65.01580826 141.51921082 64.96438599 C111.71964839 64.52961042 81.92115215 64.03673378 52.12280273 63.52587891 Z M27.31030273 246.33837891 C23.31066726 252.16641917 21.1274004 257.39443476 22.12280273 264.52587891 C23.64762029 270.80245348 26.53947397 275.84254899 31.80249023 279.78369141 C37.59024316 283.21791824 43.55535172 283.38442708 50.12280273 282.52587891 C56.31123781 280.77697334 60.64152054 276.85867106 64.12280273 271.52587891 C66.89290111 265.72005629 67.24350782 259.44499129 65.47045898 253.24462891 C62.84859227 247.39325254 58.51937886 243.16793227 52.76342773 240.38525391 C43.18076573 237.26663609 34.29860402 239.35007762 27.31030273 246.33837891 Z M213.12280273 270.52587891 C210.09792953 273.30549212 208.83511114 275.48008851 208.56030273 279.52587891 C208.72412721 282.99240475 209.15783114 283.56920351 211.49780273 286.46337891 C215.30615553 289.4556561 217.27793074 289.90586887 222.12280273 289.52587891 C224.8970885 288.26483992 226.60597709 287.21497977 228.43530273 284.77587891 C229.43479384 281.5048171 229.48096843 278.92845303 229.12280273 275.52587891 C227.06789387 271.82704295 225.60204429 270.72628901 221.68530273 269.08837891 C217.82429835 268.47874664 216.40676072 268.48449962 213.12280273 270.52587891 Z " fill="#0A0A0A" transform="translate(157.877197265625,6.47412109375)"/>
<path d="M0 0 C30.37270904 -0.37958587 60.65718067 0.72083815 91 2 C90.79721436 2.60545654 90.59442871 3.21091309 90.38549805 3.8347168 C90.11777588 4.63562744 89.85005371 5.43653809 89.57421875 6.26171875 C89.30955811 7.05280029 89.04489746 7.84388184 88.7722168 8.65893555 C86.22687269 16.37544032 85.79993022 22.89522788 86 31 C77.91819203 30.39366195 69.98998066 29.27864147 62 27.9375 C59.79201757 27.56950293 57.58369828 27.20351964 55.375 26.83984375 C54.41335937 26.67863037 53.45171875 26.51741699 52.4609375 26.35131836 C49.91933301 25.92933745 49.91933301 25.92933745 47 26 C48.85212569 28.79302563 50.70681821 31.58433585 52.5625 34.375 C53.1080957 35.19613281 53.65369141 36.01726562 54.21582031 36.86328125 C57.68100659 42.06414174 61.20832594 47.19998986 64.890625 52.25 C66 54 66 54 66 56 C60.10802806 54.04831871 54.23058735 52.05929179 48.3671875 50.0234375 C47.144552 49.59923271 47.144552 49.59923271 45.8972168 49.16645813 C27.58077212 42.80415403 9.28835982 36.37322708 -8.96136475 29.82183838 C-11.07006164 29.0657538 -13.17964264 28.31213044 -15.2901001 27.56097412 C-18.24028414 26.51000566 -21.186946 25.4497189 -24.1328125 24.38671875 C-25.01928467 24.07277664 -25.90575684 23.75883453 -26.8190918 23.43537903 C-27.6227417 23.14305893 -28.4263916 22.85073883 -29.25439453 22.54956055 C-29.95742706 22.29724167 -30.66045959 22.04492279 -31.38479614 21.78495789 C-33 21 -33 21 -34 19 C-17.83 19 -1.66 19 15 19 C12.36 16.03 9.72 13.06 7 10 C5.64444707 8.35135455 4.30368347 6.68996005 3 5 C2.4225 4.2575 1.845 3.515 1.25 2.75 C0 1 0 1 0 0 Z " fill="#0A0A0A" transform="translate(60,240)"/>
<path d="M0 0 C12.21 0 24.42 0 37 0 C36.67 0.66 36.34 1.32 36 2 C28.74 2.33 21.48 2.66 14 3 C13.67 4.32 13.34 5.64 13 7 C8.71 5.35 4.42 3.7 0 2 C0 1.34 0 0.68 0 0 Z " fill="#363636" transform="translate(4,183)"/>
<path d="M0 0 C8.25 0 16.5 0 25 0 C25 0.99 25 1.98 25 3 C17.74 3 10.48 3 3 3 C4.98 5.97 6.96 8.94 9 12 C9 12.66 9 13.32 9 14 C8.34 14 7.68 14 7 14 C5.2734375 11.4453125 5.2734375 11.4453125 3.375 8.125 C2.74335937 7.03445312 2.11171875 5.94390625 1.4609375 4.8203125 C0 2 0 2 0 0 Z " fill="#222222" transform="translate(78,150)"/>
<path d="M0 0 C0.66 0 1.32 0 2 0 C3.23681641 1.37695312 3.23681641 1.37695312 4.6015625 3.28125 C5.09140625 3.95800781 5.58125 4.63476562 6.0859375 5.33203125 C6.59382812 6.04746094 7.10171875 6.76289063 7.625 7.5 C8.3984375 8.57314453 8.3984375 8.57314453 9.1875 9.66796875 C10.46422959 11.44120429 11.73470027 13.21859948 13 15 C8.91889074 16.20148487 5.39280151 15.69292632 1.25 15.0625 C0.55261719 14.96259766 -0.14476562 14.86269531 -0.86328125 14.75976562 C-2.57651726 14.51334127 -4.28840725 14.25759045 -6 14 C-6 13.34 -6 12.68 -6 12 C-1.71 12.33 2.58 12.66 7 13 C6.67 11.35 6.34 9.7 6 8 C5.34 8 4.68 8 4 8 C4 7.34 4 6.68 4 6 C3.34 5.67 2.68 5.34 2 5 C1.27840576 3.35636866 0.60648579 1.68949614 0 0 Z " fill="#272827" transform="translate(153,201)"/>
<path d="M0 0 C10.23 0 20.46 0 31 0 C30.01 1.485 30.01 1.485 29 3 C26.20263672 3.2487793 26.20263672 3.2487793 22.6796875 3.07421875 C20.79443359 2.99204102 20.79443359 2.99204102 18.87109375 2.90820312 C17.53904434 2.83496498 16.20701325 2.76139294 14.875 2.6875 C13.53522175 2.62424797 12.19537731 2.56238166 10.85546875 2.50195312 C7.5694058 2.34828831 4.28468758 2.18037667 1 2 C0.67 1.34 0.34 0.68 0 0 Z " fill="#1D1D1D" transform="translate(66,240)"/>
<path d="M0 0 C3.90027524 7.46431986 7 16.56495735 7 25 C7.66 25.33 8.32 25.66 9 26 C8.01 26.66 7.02 27.32 6 28 C3.36 19.09 0.72 10.18 -2 1 C-1.34 0.67 -0.68 0.34 0 0 Z " fill="#1D1E1D" transform="translate(197,95)"/>
<path d="M0 0 C3.6658428 1.2219476 4.48711882 2.58870347 6.8125 5.625 C9.29821155 8.83207332 11.80547665 11.96626112 14.5 15 C17 18 17 18 17 20 C14.69 19.34 12.38 18.68 10 18 C10.33 17.01 10.66 16.02 11 15 C10.175 14.21625 9.35 13.4325 8.5 12.625 C6 10 6 10 6 8 C5.34 8 4.68 8 4 8 C4 7.34 4 6.68 4 6 C3.34 5.67 2.68 5.34 2 5 C1.27840576 3.35636866 0.60648579 1.68949614 0 0 Z " fill="#131314" transform="translate(121,215)"/>
<path d="M0 0 C6.75 -0.125 6.75 -0.125 9 1 C10.53668865 1.22467831 12.07968054 1.40796805 13.625 1.5625 C14.44226562 1.64628906 15.25953125 1.73007812 16.1015625 1.81640625 C16.72804688 1.87699219 17.35453125 1.93757813 18 2 C17.01 2.66 16.02 3.32 15 4 C15.66 4.33 16.32 4.66 17 5 C17 5.66 17 6.32 17 7 C11.14340094 5.33846988 5.5409866 3.52958084 0 1 C0 0.67 0 0.34 0 0 Z " fill="#151516" transform="translate(26,259)"/>
<path d="M0 0 C4.29 0 8.58 0 13 0 C14 3 14 3 13 7 C8.71 5.35 4.42 3.7 0 2 C0 1.34 0 0.68 0 0 Z " fill="#282828" transform="translate(4,183)"/>
<path d="M0 0 C0 1.65 0 3.3 0 5 C0.66 5.33 1.32 5.66 2 6 C2 6.66 2 7.32 2 8 C-1.4375 7.1875 -1.4375 7.1875 -5 6 C-5.33 5.01 -5.66 4.02 -6 3 C-8.00016466 1.79117904 -8.00016466 1.79117904 -10 1 C-6.59437148 0.22157062 -3.49234244 -0.09978121 0 0 Z " fill="#161616" transform="translate(49,261)"/>
<path d="M0 0 C7.26 0 14.52 0 22 0 C22 0.33 22 0.66 22 1 C17.05 1 12.1 1 7 1 C7 1.66 7 2.32 7 3 C5.02 3 3.04 3 1 3 C0.67 2.01 0.34 1.02 0 0 Z " fill="#303030" transform="translate(105,241)"/>
<path d="M0 0 C2.37002436 3.62474314 1.84379204 5.86541902 1 10 C0.96377667 11.66627298 0.95100158 13.33405374 1 15 C-0.98 15.99 -0.98 15.99 -3 17 C-2.68853528 15.10399631 -2.37578283 13.20820413 -2.0625 11.3125 C-1.88847656 10.25675781 -1.71445312 9.20101562 -1.53515625 8.11328125 C-1.06832879 5.39750396 -0.55577384 2.69875765 0 0 Z " fill="#202020" transform="translate(417,143)"/>
<path d="M0 0 C0.66 0 1.32 0 2 0 C3.62356346 1.96937661 5.13559566 3.93345148 6.625 6 C7.04523438 6.57234375 7.46546875 7.1446875 7.8984375 7.734375 C8.93805801 9.15203933 9.96977591 10.57549262 11 12 C10.67 12.66 10.34 13.32 10 14 C9.01 13.67 8.02 13.34 7 13 C6.67 11.35 6.34 9.7 6 8 C5.34 8 4.68 8 4 8 C4 7.34 4 6.68 4 6 C3.34 5.67 2.68 5.34 2 5 C1.27840576 3.35636866 0.60648579 1.68949614 0 0 Z " fill="#1B1B1C" transform="translate(153,201)"/>
<path d="M0 0 C1.0725 0.309375 2.145 0.61875 3.25 0.9375 C6.73443742 2.00245541 6.73443742 2.00245541 9.3125 2.375 C11 3 11 3 12.10546875 5.0390625 C12.40066406 5.68617188 12.69585937 6.33328125 13 7 C2.44191344 3.92482916 2.44191344 3.92482916 -2 2 C-1.34 1.34 -0.68 0.68 0 0 Z " fill="#222222" transform="translate(117,225)"/>
<path d="M0 0 C2.80561393 1.40280696 3.00680507 3.0509005 4.125 5.9375 C4.47820312 6.83339844 4.83140625 7.72929688 5.1953125 8.65234375 C6 11 6 11 6 13 C5.01 13 4.02 13 3 13 C2.49242138 11.58603098 1.99425075 10.16868271 1.5 8.75 C1.08234375 7.56664062 1.08234375 7.56664062 0.65625 6.359375 C0 4 0 4 0 0 Z " fill="#1B1B1C" transform="translate(178,39)"/>
<path d="M0 0 C2.97 0 5.94 0 9 0 C8.34 2.31 7.68 4.62 7 7 C6.34 6.67 5.68 6.34 5 6 C5 5.01 5 4.02 5 3 C3.02 3 1.04 3 -1 3 C-0.67 2.01 -0.34 1.02 0 0 Z " fill="#1E1E1E" transform="translate(142,242)"/>
<path d="M0 0 C4.29 0 8.58 0 13 0 C13.33 0.66 13.66 1.32 14 2 C10.59598052 3.13732426 8.22543336 2.83989957 4.75 2.0625 C3.85796875 1.86785156 2.9659375 1.67320312 2.046875 1.47265625 C1.37140625 1.31667969 0.6959375 1.16070312 0 1 C0 0.67 0 0.34 0 0 Z " fill="#020202" transform="translate(62,260)"/>
<path d="M0 0 C4.03810445 1.34603482 5.47295076 3.65336723 8 7 C8 7.66 8 8.32 8 9 C5.69 8.34 3.38 7.68 1 7 C1.33 6.01 1.66 5.02 2 4 C1.12516085 1.83284443 1.12516085 1.83284443 0 0 Z " fill="#353535" transform="translate(130,226)"/>
<path d="M0 0 C3.57410797 2.68058098 6.31941902 5.42589203 9 9 C8.34 9.66 7.68 10.32 7 11 C5.82750647 9.54634731 4.66216184 8.08692581 3.5 6.625 C2.52546875 5.40683594 2.52546875 5.40683594 1.53125 4.1640625 C0 2 0 2 0 0 Z " fill="#1F1F1F" transform="translate(66,246)"/>
<path d="M0 0 C0.33 0 0.66 0 1 0 C1.99 3.63 2.98 7.26 4 11 C3.01 11.33 2.02 11.66 1 12 C-0.47075246 7.58774263 -1.36884358 4.51718381 0 0 Z " fill="#171818" transform="translate(217,159)"/>
<path d="M0 0 C1.07310858 3.27185553 0.89263102 5.42947592 0.0625 8.75 C-0.22947266 9.94882813 -0.22947266 9.94882813 -0.52734375 11.171875 C-0.68332031 11.77515625 -0.83929688 12.3784375 -1 13 C-3.57712582 8.58915004 -2.96700647 5.91561622 -2 1 C-1.34 0.67 -0.68 0.34 0 0 Z " fill="#1D1D1D" transform="translate(447,98)"/>
<path d="M0 0 C6.52307692 -0.36923077 6.52307692 -0.36923077 8.9375 1.5 C9.288125 1.995 9.63875 2.49 10 3 C5.82412255 4.39195915 3.86525224 2.82323219 0 1 C0 0.67 0 0.34 0 0 Z " fill="#3F3F40" transform="translate(26,259)"/>
<path d="M0 0 C2.32758311 0.93103324 3.74357132 1.65382128 5.25 3.6875 C6.27095909 6.83545718 6.12632947 9.71543368 6 13 C5.67 13 5.34 13 5 13 C4.731875 11.9275 4.46375 10.855 4.1875 9.75 C3.12368849 6.39059522 2.16633521 4.65868412 0 2 C0 1.34 0 0.68 0 0 Z " fill="#313031" transform="translate(408,241)"/>
<path d="M0 0 C0.66 0.33 1.32 0.66 2 1 C-0.76922851 4.07692057 -3.02850024 5.77800007 -7 7 C-7.99 7 -8.98 7 -10 7 C-6.7 4.69 -3.4 2.38 0 0 Z " fill="#2A2A2A" transform="translate(181,226)"/>
<path d="M0 0 C4.455 0.99 4.455 0.99 9 2 C8.01 3.485 8.01 3.485 7 5 C4.36 4.01 1.72 3.02 -1 2 C-0.67 1.34 -0.34 0.68 0 0 Z " fill="#1A1A1A" transform="translate(63,205)"/>
<path d="M0 0 C1.32 0 2.64 0 4 0 C4.309375 0.94875 4.61875 1.8975 4.9375 2.875 C5.87394742 5.86080408 5.87394742 5.86080408 7 8 C6.01 8 5.02 8 4 8 C0 2.74285714 0 2.74285714 0 0 Z " fill="#1F1F1F" transform="translate(148,123)"/>
<path d="M0 0 C2.1793144 1.75864246 2.93686419 2.69396 3.51171875 5.48046875 C3.56972656 6.37378906 3.62773437 7.26710938 3.6875 8.1875 C3.75324219 9.08855469 3.81898438 9.98960938 3.88671875 10.91796875 C3.92410156 11.60503906 3.96148437 12.29210937 4 13 C1.12420019 8.68630028 0 5.19265239 0 0 Z " fill="#242424" transform="translate(188,71)"/>
<path d="M0 0 C2.8125 0.25 2.8125 0.25 6 1 C6.99 2.32 7.98 3.64 9 5 C5.7 4.01 2.4 3.02 -1 2 C-0.67 1.34 -0.34 0.68 0 0 Z " fill="#1D1D1D" transform="translate(112,289)"/>
<path d="M0 0 C3.33557632 2.9905167 5.15083921 5.93184627 7 10 C3.17398693 8.54875366 1.77670876 6.64225296 0 3 C0 2.01 0 1.02 0 0 Z " fill="#2B2B2B" transform="translate(112,275)"/>
<path d="M0 0 C1.10844919 3.32534757 0.84454356 5.62182575 0 9 C-0.99 8.34 -1.98 7.68 -3 7 C-1.125 1.125 -1.125 1.125 0 0 Z " fill="#161616" transform="translate(434,154)"/>
<path d="M0 0 C2 4 2 4 1.8125 6.0625 C1 8 1 8 -2 11 C-1.34 7.37 -0.68 3.74 0 0 Z " fill="#222223" transform="translate(425,109)"/>
<path d="M0 0 C2.97 0.33 5.94 0.66 9 1 C4.82091936 3.08954032 4.19589427 3.16552619 0 2 C0 1.34 0 0.68 0 0 Z " fill="#181818" transform="translate(177,10)"/>
<path d="M0 0 C4.39158329 1.4638611 4.87947433 3.97831338 7 8 C6.01 8 5.02 8 4 8 C2.15473038 5.37403939 1.01624151 3.04872454 0 0 Z " fill="#272727" transform="translate(393,267)"/>
<path d="M0 0 C2.64 0 5.28 0 8 0 C7.67 0.99 7.34 1.98 7 3 C4.69 2.67 2.38 2.34 0 2 C0 1.34 0 0.68 0 0 Z " fill="#131213" transform="translate(132,267)"/>
<path d="M0 0 C0.66 0 1.32 0 2 0 C3.32 2.64 4.64 5.28 6 8 C4.68 7.67 3.36 7.34 2 7 C1.34 4.69 0.68 2.38 0 0 Z " fill="#262626" transform="translate(198,155)"/>
<path d="M0 0 C1.64826111 2.96687001 2.44271087 5.65626525 3 9 C1.68 8.34 0.36 7.68 -1 7 C-0.67 4.69 -0.34 2.38 0 0 Z " fill="#222122" transform="translate(235,152)"/>
<path d="M0 0 C1.41377341 2.63904371 2.37240135 5.07120629 3 8 C2.01 8 1.02 8 0 8 C-0.66 5.69 -1.32 3.38 -2 1 C-1.34 0.67 -0.68 0.34 0 0 Z " fill="#151515" transform="translate(197,95)"/>
<path d="M0 0 C2.64 0 5.28 0 8 0 C8.66 1.32 9.32 2.64 10 4 C6.7 3.01 3.4 2.02 0 1 C0 0.67 0 0.34 0 0 Z " fill="#282828" transform="translate(52,269)"/>
<path d="M0 0 C0.99 1.32 1.98 2.64 3 4 C-0.3 4 -3.6 4 -7 4 C-7 3.67 -7 3.34 -7 3 C-5.5459375 2.5359375 -5.5459375 2.5359375 -4.0625 2.0625 C-1.15934208 1.30476658 -1.15934208 1.30476658 0 0 Z " fill="#323232" transform="translate(214,181)"/>
</svg>
